<?xml version="1.0" encoding="UTF-8" standalone="no"?><svg xmlns="http://www.w3.org/2000/svg" xmlns:xlink="http://www.w3.org/1999/xlink" contentScriptType="application/ecmascript" contentStyleType="text/css" height="394px" preserveAspectRatio="none" style="width:1004px;height:394px;" version="1.1" viewBox="0 0 1004 394" width="1004px" zoomAndPan="magnify"><defs><filter height="300%" id="f1gpgc49j9rwb1" width="300%" x="-1" y="-1"><feGaussianBlur result="blurOut" stdDeviation="2.0"/><feColorMatrix in="blurOut" result="blurOut2" type="matrix" values="0 0 0 0 0 0 0 0 0 0 0 0 0 0 0 0 0 0 .4 0"/><feOffset dx="4.0" dy="4.0" in="blurOut2" result="blurOut3"/><feBlend in="SourceGraphic" in2="blurOut3" mode="normal"/></filter></defs><g><!--MD5=[91f9a097fbafe30806a95a10ec71b6c3]
class HousingApplicationFX--><rect codeLine="4" fill="#FEFECE" filter="url(#f1gpgc49j9rwb1)" height="60.8047" id="HousingApplicationFX" style="stroke:#A80036;stroke-width:1.5;" width="168" x="68" y="83.5"/><ellipse cx="83" cy="99.5" fill="#ADD1B2" rx="11" ry="11" style="stroke:#A80036;stroke-width:1.0;"/><path d="M85.9688,105.1406 Q85.3906,105.4375 84.75,105.5781 Q84.1094,105.7344 83.4063,105.7344 Q80.9063,105.7344 79.5781,104.0938 Q78.2656,102.4375 78.2656,99.3125 Q78.2656,96.1875 79.5781,94.5313 Q80.9063,92.875 83.4063,92.875 Q84.1094,92.875 84.75,93.0313 Q85.4063,93.1875 85.9688,93.4844 L85.9688,96.2031 Q85.3438,95.625 84.75,95.3594 Q84.1563,95.0781 83.5313,95.0781 Q82.1875,95.0781 81.5,96.1563 Q80.8125,97.2188 80.8125,99.3125 Q80.8125,101.4063 81.5,102.4844 Q82.1875,103.5469 83.5313,103.5469 Q84.1563,103.5469 84.75,103.2813 Q85.3438,103 85.9688,102.4219 L85.9688,105.1406 Z " fill="#000000"/><text fill="#000000" font-family="sans-serif" font-size="12" lengthAdjust="spacingAndGlyphs" textLength="136" x="97" y="103.6543">HousingApplicationFX</text><line style="stroke:#A80036;stroke-width:1.5;" x1="69" x2="235" y1="115.5" y2="115.5"/><text fill="#000000" font-family="sans-serif" font-size="11" lengthAdjust="spacingAndGlyphs" textLength="131" x="74" y="129.7104">-housing: LivingSpace[]</text><line style="stroke:#A80036;stroke-width:1.5;" x1="69" x2="235" y1="136.3047" y2="136.3047"/><!--MD5=[2e846b496b823759a46993e309d61d0b]
class LivingSpace--><rect codeLine="8" fill="#FEFECE" filter="url(#f1gpgc49j9rwb1)" height="214.4609" id="LivingSpace" style="stroke:#A80036;stroke-width:1.5;" width="399" x="271.5" y="7"/><ellipse cx="431.25" cy="23" fill="#A9DCDF" rx="11" ry="11" style="stroke:#A80036;stroke-width:1.0;"/><path d="M431.3594,18.3438 L430.2031,23.4219 L432.5313,23.4219 L431.3594,18.3438 Z M429.875,16.1094 L432.8594,16.1094 L436.2188,28.5 L433.7656,28.5 L433,25.4375 L429.7188,25.4375 L428.9688,28.5 L426.5313,28.5 L429.875,16.1094 Z " fill="#000000"/><text fill="#000000" font-family="sans-serif" font-size="12" font-style="italic" lengthAdjust="spacingAndGlyphs" textLength="71" x="451.75" y="27.1543">LivingSpace</text><line style="stroke:#A80036;stroke-width:1.5;" x1="272.5" x2="669.5" y1="39" y2="39"/><text fill="#000000" font-family="sans-serif" font-size="11" lengthAdjust="spacingAndGlyphs" textLength="97" x="277.5" y="53.2104">#address: String</text><text fill="#000000" font-family="sans-serif" font-size="11" lengthAdjust="spacingAndGlyphs" textLength="86" x="277.5" y="66.0151">#baths: double</text><text fill="#000000" font-family="sans-serif" font-size="11" lengthAdjust="spacingAndGlyphs" textLength="90" x="277.5" y="78.8198">#bedRooms: int</text><text fill="#000000" font-family="sans-serif" font-size="11" lengthAdjust="spacingAndGlyphs" textLength="52" x="277.5" y="91.6245">#sqft: int</text><line style="stroke:#A80036;stroke-width:1.5;" x1="272.5" x2="669.5" y1="98.2188" y2="98.2188"/><text fill="#000000" font-family="sans-serif" font-size="11" lengthAdjust="spacingAndGlyphs" textLength="387" x="277.5" y="112.4292">+LivingSpace(address: String, baths: double, bedRoom: int, sqft: int)</text><text fill="#000000" font-family="sans-serif" font-size="11" lengthAdjust="spacingAndGlyphs" textLength="170" x="277.5" y="125.2339">+setAddress(address: String)</text><text fill="#000000" font-family="sans-serif" font-size="11" lengthAdjust="spacingAndGlyphs" textLength="123" x="277.5" y="138.0386">+getAddress(): String</text><text fill="#000000" font-family="sans-serif" font-size="11" lengthAdjust="spacingAndGlyphs" textLength="145" x="277.5" y="150.8433">+setBaths(baths: double)</text><text fill="#000000" font-family="sans-serif" font-size="11" lengthAdjust="spacingAndGlyphs" textLength="113" x="277.5" y="163.6479">+getBaths(): double</text><text fill="#000000" font-family="sans-serif" font-size="11" lengthAdjust="spacingAndGlyphs" textLength="190" x="277.5" y="176.4526">+setBedRoomNum(BedRoom: int)</text><text fill="#000000" font-family="sans-serif" font-size="11" lengthAdjust="spacingAndGlyphs" textLength="101" x="277.5" y="189.2573">+setSqft(sqft: int)</text><text fill="#000000" font-family="sans-serif" font-size="11" lengthAdjust="spacingAndGlyphs" textLength="79" x="277.5" y="202.062">+getSqft(): int</text><text fill="#000000" font-family="sans-serif" font-size="11" lengthAdjust="spacingAndGlyphs" textLength="103" x="277.5" y="214.8667">+toString(): String</text><!--MD5=[7938f2b00af14ba76f29cd64fe89cba4]
class Apartment--><rect codeLine="25" fill="#FEFECE" filter="url(#f1gpgc49j9rwb1)" height="99.2188" id="Apartment" style="stroke:#A80036;stroke-width:1.5;" width="446" x="7" y="281"/><ellipse cx="192.75" cy="297" fill="#ADD1B2" rx="11" ry="11" style="stroke:#A80036;stroke-width:1.0;"/><path d="M195.7188,302.6406 Q195.1406,302.9375 194.5,303.0781 Q193.8594,303.2344 193.1563,303.2344 Q190.6563,303.2344 189.3281,301.5938 Q188.0156,299.9375 188.0156,296.8125 Q188.0156,293.6875 189.3281,292.0313 Q190.6563,290.375 193.1563,290.375 Q193.8594,290.375 194.5,290.5313 Q195.1563,290.6875 195.7188,290.9844 L195.7188,293.7031 Q195.0938,293.125 194.5,292.8594 Q193.9063,292.5781 193.2813,292.5781 Q191.9375,292.5781 191.25,293.6563 Q190.5625,294.7188 190.5625,296.8125 Q190.5625,298.9063 191.25,299.9844 Q191.9375,301.0469 193.2813,301.0469 Q193.9063,301.0469 194.5,300.7813 Q195.0938,300.5 195.7188,299.9219 L195.7188,302.6406 Z " fill="#000000"/><text fill="#000000" font-family="sans-serif" font-size="12" lengthAdjust="spacingAndGlyphs" textLength="66" x="213.25" y="301.1543">Apartment</text><line style="stroke:#A80036;stroke-width:1.5;" x1="8" x2="452" y1="313" y2="313"/><text fill="#000000" font-family="sans-serif" font-size="11" lengthAdjust="spacingAndGlyphs" textLength="68" x="13" y="327.2104">-rentFee: int</text><line style="stroke:#A80036;stroke-width:1.5;" x1="8" x2="452" y1="333.8047" y2="333.8047"/><text fill="#000000" font-family="sans-serif" font-size="11" lengthAdjust="spacingAndGlyphs" textLength="434" x="13" y="348.0151">+Apartmen(address:String, baths:double, bedRoom:int, sqft:int, rentFee: int)</text><text fill="#000000" font-family="sans-serif" font-size="11" lengthAdjust="spacingAndGlyphs" textLength="122" x="13" y="360.8198">+setRentFee(fee: iint)</text><text fill="#000000" font-family="sans-serif" font-size="11" lengthAdjust="spacingAndGlyphs" textLength="101" x="13" y="373.6245">+getRentFee(): int</text><!--MD5=[5005bba8c6d1dda988b0bcc8eba409f6]
class House--><rect codeLine="33" fill="#FEFECE" filter="url(#f1gpgc49j9rwb1)" height="99.2188" id="House" style="stroke:#A80036;stroke-width:1.5;" width="447" x="488.5" y="281"/><ellipse cx="687.75" cy="297" fill="#ADD1B2" rx="11" ry="11" style="stroke:#A80036;stroke-width:1.0;"/><path d="M690.7188,302.6406 Q690.1406,302.9375 689.5,303.0781 Q688.8594,303.2344 688.1563,303.2344 Q685.6563,303.2344 684.3281,301.5938 Q683.0156,299.9375 683.0156,296.8125 Q683.0156,293.6875 684.3281,292.0313 Q685.6563,290.375 688.1563,290.375 Q688.8594,290.375 689.5,290.5313 Q690.1563,290.6875 690.7188,290.9844 L690.7188,293.7031 Q690.0938,293.125 689.5,292.8594 Q688.9063,292.5781 688.2813,292.5781 Q686.9375,292.5781 686.25,293.6563 Q685.5625,294.7188 685.5625,296.8125 Q685.5625,298.9063 686.25,299.9844 Q686.9375,301.0469 688.2813,301.0469 Q688.9063,301.0469 689.5,300.7813 Q690.0938,300.5 690.7188,299.9219 L690.7188,302.6406 Z " fill="#000000"/><text fill="#000000" font-family="sans-serif" font-size="12" lengthAdjust="spacingAndGlyphs" textLength="40" x="708.25" y="301.1543">House</text><line style="stroke:#A80036;stroke-width:1.5;" x1="489.5" x2="934.5" y1="313" y2="313"/><text fill="#000000" font-family="sans-serif" font-size="11" lengthAdjust="spacingAndGlyphs" textLength="108" x="494.5" y="327.2104">-housePrice: String</text><line style="stroke:#A80036;stroke-width:1.5;" x1="489.5" x2="934.5" y1="333.8047" y2="333.8047"/><text fill="#000000" font-family="sans-serif" font-size="11" lengthAdjust="spacingAndGlyphs" textLength="435" x="494.5" y="348.0151">+House(address:String, baths:double, bedRoom:int, sqft:int, housePrice: int)</text><text fill="#000000" font-family="sans-serif" font-size="11" lengthAdjust="spacingAndGlyphs" textLength="112" x="494.5" y="360.8198">+setPrice(price: int)</text><text fill="#000000" font-family="sans-serif" font-size="11" lengthAdjust="spacingAndGlyphs" textLength="84" x="494.5" y="373.6245">+getPrice(): int</text><!--MD5=[8ab74f1948a71dc6877152ec228a3699]
class InvalidBathNumberException--><rect codeLine="42" fill="#FEFECE" filter="url(#f1gpgc49j9rwb1)" height="60.8047" id="InvalidBathNumberException" style="stroke:#A80036;stroke-width:1.5;" width="284" x="706" y="83.5"/><ellipse cx="754.75" cy="99.5" fill="#ADD1B2" rx="11" ry="11" style="stroke:#A80036;stroke-width:1.0;"/><path d="M757.7188,105.1406 Q757.1406,105.4375 756.5,105.5781 Q755.8594,105.7344 755.1563,105.7344 Q752.6563,105.7344 751.3281,104.0938 Q750.0156,102.4375 750.0156,99.3125 Q750.0156,96.1875 751.3281,94.5313 Q752.6563,92.875 755.1563,92.875 Q755.8594,92.875 756.5,93.0313 Q757.1563,93.1875 757.7188,93.4844 L757.7188,96.2031 Q757.0938,95.625 756.5,95.3594 Q755.9063,95.0781 755.2813,95.0781 Q753.9375,95.0781 753.25,96.1563 Q752.5625,97.2188 752.5625,99.3125 Q752.5625,101.4063 753.25,102.4844 Q753.9375,103.5469 755.2813,103.5469 Q755.9063,103.5469 756.5,103.2813 Q757.0938,103 757.7188,102.4219 L757.7188,105.1406 Z " fill="#000000"/><text fill="#000000" font-family="sans-serif" font-size="12" lengthAdjust="spacingAndGlyphs" textLength="178" x="775.25" y="103.6543">InvalidBathNumberException</text><line style="stroke:#A80036;stroke-width:1.5;" x1="707" x2="989" y1="115.5" y2="115.5"/><line style="stroke:#A80036;stroke-width:1.5;" x1="707" x2="989" y1="123.5" y2="123.5"/><text fill="#000000" font-family="sans-serif" font-size="11" lengthAdjust="spacingAndGlyphs" textLength="272" x="712" y="137.7104">+InvalidBathNumberException(message: String)</text><!--MD5=[51a889f2128b63e127b1ac2f86da71c7]
reverse link LivingSpace to Apartment--><path d="M336.48,234.73 C318.19,251.01 300.34,266.9 284.64,280.87 " fill="none" id="LivingSpace-backto-Apartment" style="stroke:#A80036;stroke-width:1.0;"/><polygon fill="none" points="331.97,229.38,351.56,221.31,341.27,239.83,331.97,229.38" style="stroke:#A80036;stroke-width:1.0;"/><!--MD5=[cf511054d571989184d54fa45a1a9499]
reverse link LivingSpace to House--><path d="M605.52,234.73 C623.81,251.01 641.66,266.9 657.36,280.87 " fill="none" id="LivingSpace-backto-House" style="stroke:#A80036;stroke-width:1.0;"/><polygon fill="none" points="600.73,239.83,590.44,221.31,610.03,229.38,600.73,239.83" style="stroke:#A80036;stroke-width:1.0;"/><!--MD5=[633891c7d6ddcde4062fe78f6b984141]
@startuml LabOne 

skinparam classAttributeIconSize 0

class HousingApplicationFX {
    -housing: LivingSpace[]
}

abstract LivingSpace {
    # address: String 
    # baths: double
    # bedRooms: int 
    # sqft: int 

    +LivingSpace(address: String, baths: double, bedRoom: int, sqft: int) 
    +setAddress(address: String)
    +getAddress(): String
    +setBaths(baths: double)
    +getBaths(): double
    +setBedRoomNum(BedRoom: int)
    +setSqft(sqft: int)
    +getSqft(): int
    +toString(): String 
}

class Apartment extends LivingSpace {
    - rentFee: int

    +Apartmen(address:String, baths:double, bedRoom:int, sqft:int, rentFee: int)
    +setRentFee(fee: iint)
    +getRentFee(): int
}

class House extends LivingSpace {
    - housePrice: String

    + House(address:String, baths:double, bedRoom:int, sqft:int, housePrice: int)
    +setPrice(price: int)
    +getPrice(): int

}

class InvalidBathNumberException {
    + InvalidBathNumberException(message: String)
}

@enduml

PlantUML version 1.2020.22(Sun Dec 06 01:36:27 PST 2020)
(GPL source distribution)
Java Runtime: OpenJDK Runtime Environment
JVM: OpenJDK 64-Bit Server VM
Default Encoding: UTF-8
Language: en
Country: CA
--></g></svg>