<?xml version="1.0" encoding="UTF-8" standalone="no"?><svg xmlns="http://www.w3.org/2000/svg" xmlns:xlink="http://www.w3.org/1999/xlink" contentScriptType="application/ecmascript" contentStyleType="text/css" height="459px" preserveAspectRatio="none" style="width:1526px;height:459px;" version="1.1" viewBox="0 0 1526 459" width="1526px" zoomAndPan="magnify"><defs><filter height="300%" id="f128dsy08mla9r" width="300%" x="-1" y="-1"><feGaussianBlur result="blurOut" stdDeviation="2.0"/><feColorMatrix in="blurOut" result="blurOut2" type="matrix" values="0 0 0 0 0 0 0 0 0 0 0 0 0 0 0 0 0 0 .4 0"/><feOffset dx="4.0" dy="4.0" in="blurOut2" result="blurOut3"/><feBlend in="SourceGraphic" in2="blurOut3" mode="normal"/></filter></defs><g><!--MD5=[68138dad978bdf8d769f3d0c6597ded8]
cluster duckTypes--><polygon fill="#FFFFFF" filter="url(#f128dsy08mla9r)" points="222.5,6,314.5,6,321.5,28.2969,938.5,28.2969,938.5,316,222.5,316,222.5,6" style="stroke:#000000;stroke-width:1.5;"/><line style="stroke:#000000;stroke-width:1.5;" x1="222.5" x2="321.5" y1="28.2969" y2="28.2969"/><text fill="#000000" font-family="sans-serif" font-size="14" font-weight="bold" lengthAdjust="spacing" textLength="86" x="226.5" y="20.9951">duckTypes</text><!--MD5=[917213f37991c994021116008c0f92d7]
cluster behavior--><polygon fill="#FFFFFF" filter="url(#f128dsy08mla9r)" points="962.5,204,1037.5,204,1044.5,226.2969,1248.5,226.2969,1248.5,316,962.5,316,962.5,204" style="stroke:#000000;stroke-width:1.5;"/><line style="stroke:#000000;stroke-width:1.5;" x1="962.5" x2="1044.5" y1="226.2969" y2="226.2969"/><text fill="#000000" font-family="sans-serif" font-size="14" font-weight="bold" lengthAdjust="spacing" textLength="69" x="966.5" y="218.9951">behavior</text><!--MD5=[a9fbbee13f647f655b6107393bcf4632]
cluster behavoir.fly--><polygon fill="#FFFFFF" filter="url(#f128dsy08mla9r)" points="636.5,340,735.5,340,742.5,362.2969,1086.5,362.2969,1086.5,452,636.5,452,636.5,340" style="stroke:#000000;stroke-width:1.5;"/><line style="stroke:#000000;stroke-width:1.5;" x1="636.5" x2="742.5" y1="362.2969" y2="362.2969"/><text fill="#000000" font-family="sans-serif" font-size="14" font-weight="bold" lengthAdjust="spacing" textLength="93" x="640.5" y="354.9951">behavoir.fly</text><!--MD5=[b0380c5b932ea3b534fbb549324e879a]
cluster behavior.quack--><polygon fill="#FFFFFF" filter="url(#f128dsy08mla9r)" points="1110.5,340,1237.5,340,1244.5,362.2969,1509.5,362.2969,1509.5,452,1110.5,452,1110.5,340" style="stroke:#000000;stroke-width:1.5;"/><line style="stroke:#000000;stroke-width:1.5;" x1="1110.5" x2="1244.5" y1="362.2969" y2="362.2969"/><text fill="#000000" font-family="sans-serif" font-size="14" font-weight="bold" lengthAdjust="spacing" textLength="121" x="1114.5" y="354.9951">behavior.quack</text><!--MD5=[5c989ea2cc960d61e4c19c8233767030]
class duckTypes.Duck--><rect codeLine="5" fill="#FEFECE" filter="url(#f128dsy08mla9r)" height="137.6328" id="duckTypes.Duck" style="stroke:#A80036;stroke-width:1.5;" width="266" x="586.5" y="41"/><ellipse cx="699.75" cy="57" fill="#A9DCDF" rx="11" ry="11" style="stroke:#A80036;stroke-width:1.0;"/><path d="M699.8594,52.3438 L698.7031,57.4219 L701.0313,57.4219 L699.8594,52.3438 Z M698.375,50.1094 L701.3594,50.1094 L704.7188,62.5 L702.2656,62.5 L701.5,59.4375 L698.2188,59.4375 L697.4688,62.5 L695.0313,62.5 L698.375,50.1094 Z " fill="#000000"/><text fill="#000000" font-family="sans-serif" font-size="12" font-style="italic" lengthAdjust="spacing" textLength="31" x="720.25" y="61.1543">Duck</text><line style="stroke:#A80036;stroke-width:1.5;" x1="587.5" x2="851.5" y1="73" y2="73"/><text fill="#000000" font-family="sans-serif" font-size="11" lengthAdjust="spacing" textLength="140" x="592.5" y="87.2104">-flyBehavior: FlyBehavior</text><text fill="#000000" font-family="sans-serif" font-size="11" lengthAdjust="spacing" textLength="180" x="592.5" y="100.0151">-quackBehavoir: QuackBehavior</text><line style="stroke:#A80036;stroke-width:1.5;" x1="587.5" x2="851.5" y1="106.6094" y2="106.6094"/><text fill="#000000" font-family="sans-serif" font-size="11" lengthAdjust="spacing" textLength="109" x="592.5" y="120.8198">+performFly(): void</text><text fill="#000000" font-family="sans-serif" font-size="11" lengthAdjust="spacing" textLength="129" x="592.5" y="133.6245">+performQuack(): void</text><text fill="#000000" font-family="sans-serif" font-size="11" lengthAdjust="spacing" textLength="78" x="592.5" y="146.4292">+swim(): void</text><text fill="#000000" font-family="sans-serif" font-size="11" lengthAdjust="spacing" textLength="215" x="592.5" y="159.2339">+setFlyBehavior(FlyBehavior fb) : void</text><text fill="#000000" font-family="sans-serif" font-size="11" lengthAdjust="spacing" textLength="254" x="592.5" y="172.0386">+setQuackBehavior(QuackBehavior qb): void</text><!--MD5=[56dc2d609883c48cf1bebb205d0cf402]
class duckTypes.DecoyDuck--><rect codeLine="16" fill="#FEFECE" filter="url(#f128dsy08mla9r)" height="60.8047" id="duckTypes.DecoyDuck" style="stroke:#A80036;stroke-width:1.5;" width="104" x="238.5" y="239"/><ellipse cx="254.85" cy="255" fill="#ADD1B2" rx="11" ry="11" style="stroke:#A80036;stroke-width:1.0;"/><path d="M257.8188,260.6406 Q257.2406,260.9375 256.6,261.0859 Q255.9594,261.2344 255.2563,261.2344 Q252.7563,261.2344 251.4359,259.5859 Q250.1156,257.9375 250.1156,254.8125 Q250.1156,251.6875 251.4359,250.0313 Q252.7563,248.375 255.2563,248.375 Q255.9594,248.375 256.6078,248.5313 Q257.2563,248.6875 257.8188,248.9844 L257.8188,251.7031 Q257.1938,251.125 256.6,250.8516 Q256.0063,250.5781 255.3813,250.5781 Q254.0375,250.5781 253.35,251.6484 Q252.6625,252.7188 252.6625,254.8125 Q252.6625,256.9063 253.35,257.9766 Q254.0375,259.0469 255.3813,259.0469 Q256.0063,259.0469 256.6,258.7734 Q257.1938,258.5 257.8188,257.9219 L257.8188,260.6406 Z " fill="#000000"/><text fill="#000000" font-family="sans-serif" font-size="12" lengthAdjust="spacing" textLength="69" x="269.15" y="259.1543">DecoyDuck</text><line style="stroke:#A80036;stroke-width:1.5;" x1="239.5" x2="341.5" y1="271" y2="271"/><line style="stroke:#A80036;stroke-width:1.5;" x1="239.5" x2="341.5" y1="279" y2="279"/><text fill="#000000" font-family="sans-serif" font-size="11" lengthAdjust="spacing" textLength="92" x="244.5" y="293.2104">+display() : void</text><!--MD5=[85df87fced46d7e41a466e43aa900ee4]
class duckTypes.MallardDuck--><rect codeLine="19" fill="#FEFECE" filter="url(#f128dsy08mla9r)" height="60.8047" id="duckTypes.MallardDuck" style="stroke:#A80036;stroke-width:1.5;" width="108" x="377.5" y="239"/><ellipse cx="392.5" cy="255" fill="#ADD1B2" rx="11" ry="11" style="stroke:#A80036;stroke-width:1.0;"/><path d="M395.4688,260.6406 Q394.8906,260.9375 394.25,261.0859 Q393.6094,261.2344 392.9063,261.2344 Q390.4063,261.2344 389.0859,259.5859 Q387.7656,257.9375 387.7656,254.8125 Q387.7656,251.6875 389.0859,250.0313 Q390.4063,248.375 392.9063,248.375 Q393.6094,248.375 394.2578,248.5313 Q394.9063,248.6875 395.4688,248.9844 L395.4688,251.7031 Q394.8438,251.125 394.25,250.8516 Q393.6563,250.5781 393.0313,250.5781 Q391.6875,250.5781 391,251.6484 Q390.3125,252.7188 390.3125,254.8125 Q390.3125,256.9063 391,257.9766 Q391.6875,259.0469 393.0313,259.0469 Q393.6563,259.0469 394.25,258.7734 Q394.8438,258.5 395.4688,257.9219 L395.4688,260.6406 Z " fill="#000000"/><text fill="#000000" font-family="sans-serif" font-size="12" lengthAdjust="spacing" textLength="76" x="406.5" y="259.1543">MallardDuck</text><line style="stroke:#A80036;stroke-width:1.5;" x1="378.5" x2="484.5" y1="271" y2="271"/><line style="stroke:#A80036;stroke-width:1.5;" x1="378.5" x2="484.5" y1="279" y2="279"/><text fill="#000000" font-family="sans-serif" font-size="11" lengthAdjust="spacing" textLength="92" x="383.5" y="293.2104">+display() : void</text><!--MD5=[0ea078274fc832d3b199f5ebc233a3c0]
class duckTypes.ModelDuck--><rect codeLine="22" fill="#FEFECE" filter="url(#f128dsy08mla9r)" height="60.8047" id="duckTypes.ModelDuck" style="stroke:#A80036;stroke-width:1.5;" width="104" x="520.5" y="239"/><ellipse cx="537.3" cy="255" fill="#ADD1B2" rx="11" ry="11" style="stroke:#A80036;stroke-width:1.0;"/><path d="M540.2688,260.6406 Q539.6906,260.9375 539.05,261.0859 Q538.4094,261.2344 537.7063,261.2344 Q535.2063,261.2344 533.8859,259.5859 Q532.5656,257.9375 532.5656,254.8125 Q532.5656,251.6875 533.8859,250.0313 Q535.2063,248.375 537.7063,248.375 Q538.4094,248.375 539.0578,248.5313 Q539.7063,248.6875 540.2688,248.9844 L540.2688,251.7031 Q539.6438,251.125 539.05,250.8516 Q538.4563,250.5781 537.8313,250.5781 Q536.4875,250.5781 535.8,251.6484 Q535.1125,252.7188 535.1125,254.8125 Q535.1125,256.9063 535.8,257.9766 Q536.4875,259.0469 537.8313,259.0469 Q538.4563,259.0469 539.05,258.7734 Q539.6438,258.5 540.2688,257.9219 L540.2688,260.6406 Z " fill="#000000"/><text fill="#000000" font-family="sans-serif" font-size="12" lengthAdjust="spacing" textLength="68" x="551.7" y="259.1543">ModelDuck</text><line style="stroke:#A80036;stroke-width:1.5;" x1="521.5" x2="623.5" y1="271" y2="271"/><line style="stroke:#A80036;stroke-width:1.5;" x1="521.5" x2="623.5" y1="279" y2="279"/><text fill="#000000" font-family="sans-serif" font-size="11" lengthAdjust="spacing" textLength="92" x="526.5" y="293.2104">+display() : void</text><!--MD5=[8e32f9f313ff852fbfba1d75c2b62edb]
class duckTypes.RedheadDuck--><rect codeLine="25" fill="#FEFECE" filter="url(#f128dsy08mla9r)" height="60.8047" id="duckTypes.RedheadDuck" style="stroke:#A80036;stroke-width:1.5;" width="119" x="660" y="239"/><ellipse cx="675" cy="255" fill="#ADD1B2" rx="11" ry="11" style="stroke:#A80036;stroke-width:1.0;"/><path d="M677.9688,260.6406 Q677.3906,260.9375 676.75,261.0859 Q676.1094,261.2344 675.4063,261.2344 Q672.9063,261.2344 671.5859,259.5859 Q670.2656,257.9375 670.2656,254.8125 Q670.2656,251.6875 671.5859,250.0313 Q672.9063,248.375 675.4063,248.375 Q676.1094,248.375 676.7578,248.5313 Q677.4063,248.6875 677.9688,248.9844 L677.9688,251.7031 Q677.3438,251.125 676.75,250.8516 Q676.1563,250.5781 675.5313,250.5781 Q674.1875,250.5781 673.5,251.6484 Q672.8125,252.7188 672.8125,254.8125 Q672.8125,256.9063 673.5,257.9766 Q674.1875,259.0469 675.5313,259.0469 Q676.1563,259.0469 676.75,258.7734 Q677.3438,258.5 677.9688,257.9219 L677.9688,260.6406 Z " fill="#000000"/><text fill="#000000" font-family="sans-serif" font-size="12" lengthAdjust="spacing" textLength="87" x="689" y="259.1543">RedheadDuck</text><line style="stroke:#A80036;stroke-width:1.5;" x1="661" x2="778" y1="271" y2="271"/><line style="stroke:#A80036;stroke-width:1.5;" x1="661" x2="778" y1="279" y2="279"/><text fill="#000000" font-family="sans-serif" font-size="11" lengthAdjust="spacing" textLength="92" x="666" y="293.2104">+display() : void</text><!--MD5=[3e70a35029a526acf436152ed4bc457a]
class duckTypes.RubberDuck--><rect codeLine="28" fill="#FEFECE" filter="url(#f128dsy08mla9r)" height="60.8047" id="duckTypes.RubberDuck" style="stroke:#A80036;stroke-width:1.5;" width="108" x="814.5" y="239"/><ellipse cx="829.5" cy="255" fill="#ADD1B2" rx="11" ry="11" style="stroke:#A80036;stroke-width:1.0;"/><path d="M832.4688,260.6406 Q831.8906,260.9375 831.25,261.0859 Q830.6094,261.2344 829.9063,261.2344 Q827.4063,261.2344 826.0859,259.5859 Q824.7656,257.9375 824.7656,254.8125 Q824.7656,251.6875 826.0859,250.0313 Q827.4063,248.375 829.9063,248.375 Q830.6094,248.375 831.2578,248.5313 Q831.9063,248.6875 832.4688,248.9844 L832.4688,251.7031 Q831.8438,251.125 831.25,250.8516 Q830.6563,250.5781 830.0313,250.5781 Q828.6875,250.5781 828,251.6484 Q827.3125,252.7188 827.3125,254.8125 Q827.3125,256.9063 828,257.9766 Q828.6875,259.0469 830.0313,259.0469 Q830.6563,259.0469 831.25,258.7734 Q831.8438,258.5 832.4688,257.9219 L832.4688,260.6406 Z " fill="#000000"/><text fill="#000000" font-family="sans-serif" font-size="12" lengthAdjust="spacing" textLength="76" x="843.5" y="259.1543">RubberDuck</text><line style="stroke:#A80036;stroke-width:1.5;" x1="815.5" x2="921.5" y1="271" y2="271"/><line style="stroke:#A80036;stroke-width:1.5;" x1="815.5" x2="921.5" y1="279" y2="279"/><text fill="#000000" font-family="sans-serif" font-size="11" lengthAdjust="spacing" textLength="92" x="820.5" y="293.2104">+display() : void</text><!--MD5=[edd3af14864c69e6f344ab8e1debb146]
class behavior.FlyBehavior--><rect codeLine="31" fill="#FEFECE" filter="url(#f128dsy08mla9r)" height="60.8047" id="behavior.FlyBehavior" style="stroke:#A80036;stroke-width:1.5;" width="99" x="979" y="239"/><ellipse cx="994" cy="255" fill="#B4A7E5" rx="11" ry="11" style="stroke:#A80036;stroke-width:1.0;"/><path d="M989.9219,250.7656 L989.9219,248.6094 L997.3125,248.6094 L997.3125,250.7656 L994.8438,250.7656 L994.8438,258.8438 L997.3125,258.8438 L997.3125,261 L989.9219,261 L989.9219,258.8438 L992.3906,258.8438 L992.3906,250.7656 L989.9219,250.7656 Z " fill="#000000"/><text fill="#000000" font-family="sans-serif" font-size="12" font-style="italic" lengthAdjust="spacing" textLength="67" x="1008" y="259.1543">FlyBehavior</text><line style="stroke:#A80036;stroke-width:1.5;" x1="980" x2="1077" y1="271" y2="271"/><line style="stroke:#A80036;stroke-width:1.5;" x1="980" x2="1077" y1="279" y2="279"/><text fill="#000000" font-family="sans-serif" font-size="11" lengthAdjust="spacing" textLength="65" x="985" y="293.2104">+fly() : void</text><!--MD5=[e511b73a3603f121ff668bfeda1b5995]
class behavior.QuackBehavior--><rect codeLine="43" fill="#FEFECE" filter="url(#f128dsy08mla9r)" height="60.8047" id="behavior.QuackBehavior" style="stroke:#A80036;stroke-width:1.5;" width="119" x="1113" y="239"/><ellipse cx="1128" cy="255" fill="#B4A7E5" rx="11" ry="11" style="stroke:#A80036;stroke-width:1.0;"/><path d="M1123.9219,250.7656 L1123.9219,248.6094 L1131.3125,248.6094 L1131.3125,250.7656 L1128.8438,250.7656 L1128.8438,258.8438 L1131.3125,258.8438 L1131.3125,261 L1123.9219,261 L1123.9219,258.8438 L1126.3906,258.8438 L1126.3906,250.7656 L1123.9219,250.7656 Z " fill="#000000"/><text fill="#000000" font-family="sans-serif" font-size="12" font-style="italic" lengthAdjust="spacing" textLength="87" x="1142" y="259.1543">QuackBehavior</text><line style="stroke:#A80036;stroke-width:1.5;" x1="1114" x2="1231" y1="271" y2="271"/><line style="stroke:#A80036;stroke-width:1.5;" x1="1114" x2="1231" y1="279" y2="279"/><text fill="#000000" font-family="sans-serif" font-size="11" lengthAdjust="spacing" textLength="81" x="1119" y="293.2104">+quack(): void</text><!--MD5=[78e7892ade2e62236d11d9d4d9d3f3a8]
class behavoir.fly.FlyNoWay--><rect codeLine="34" fill="#FEFECE" filter="url(#f128dsy08mla9r)" height="60.8047" id="behavoir.fly.FlyNoWay" style="stroke:#A80036;stroke-width:1.5;" width="90" x="980.5" y="375"/><ellipse cx="995.5" cy="391" fill="#ADD1B2" rx="11" ry="11" style="stroke:#A80036;stroke-width:1.0;"/><path d="M998.4688,396.6406 Q997.8906,396.9375 997.25,397.0859 Q996.6094,397.2344 995.9063,397.2344 Q993.4063,397.2344 992.0859,395.5859 Q990.7656,393.9375 990.7656,390.8125 Q990.7656,387.6875 992.0859,386.0313 Q993.4063,384.375 995.9063,384.375 Q996.6094,384.375 997.2578,384.5313 Q997.9063,384.6875 998.4688,384.9844 L998.4688,387.7031 Q997.8438,387.125 997.25,386.8516 Q996.6563,386.5781 996.0313,386.5781 Q994.6875,386.5781 994,387.6484 Q993.3125,388.7188 993.3125,390.8125 Q993.3125,392.9063 994,393.9766 Q994.6875,395.0469 996.0313,395.0469 Q996.6563,395.0469 997.25,394.7734 Q997.8438,394.5 998.4688,393.9219 L998.4688,396.6406 Z " fill="#000000"/><text fill="#000000" font-family="sans-serif" font-size="12" lengthAdjust="spacing" textLength="58" x="1009.5" y="395.1543">FlyNoWay</text><line style="stroke:#A80036;stroke-width:1.5;" x1="981.5" x2="1069.5" y1="407" y2="407"/><line style="stroke:#A80036;stroke-width:1.5;" x1="981.5" x2="1069.5" y1="415" y2="415"/><text fill="#000000" font-family="sans-serif" font-size="11" lengthAdjust="spacing" textLength="65" x="986.5" y="429.2104">+fly() : void</text><!--MD5=[b5c0c85bad06cbc73283b9c6d9407740]
class behavoir.fly.FlyRocketPowered--><rect codeLine="37" fill="#FEFECE" filter="url(#f128dsy08mla9r)" height="60.8047" id="behavoir.fly.FlyRocketPowered" style="stroke:#A80036;stroke-width:1.5;" width="145" x="800" y="375"/><ellipse cx="815" cy="391" fill="#ADD1B2" rx="11" ry="11" style="stroke:#A80036;stroke-width:1.0;"/><path d="M817.9688,396.6406 Q817.3906,396.9375 816.75,397.0859 Q816.1094,397.2344 815.4063,397.2344 Q812.9063,397.2344 811.5859,395.5859 Q810.2656,393.9375 810.2656,390.8125 Q810.2656,387.6875 811.5859,386.0313 Q812.9063,384.375 815.4063,384.375 Q816.1094,384.375 816.7578,384.5313 Q817.4063,384.6875 817.9688,384.9844 L817.9688,387.7031 Q817.3438,387.125 816.75,386.8516 Q816.1563,386.5781 815.5313,386.5781 Q814.1875,386.5781 813.5,387.6484 Q812.8125,388.7188 812.8125,390.8125 Q812.8125,392.9063 813.5,393.9766 Q814.1875,395.0469 815.5313,395.0469 Q816.1563,395.0469 816.75,394.7734 Q817.3438,394.5 817.9688,393.9219 L817.9688,396.6406 Z " fill="#000000"/><text fill="#000000" font-family="sans-serif" font-size="12" lengthAdjust="spacing" textLength="113" x="829" y="395.1543">FlyRocketPowered</text><line style="stroke:#A80036;stroke-width:1.5;" x1="801" x2="944" y1="407" y2="407"/><line style="stroke:#A80036;stroke-width:1.5;" x1="801" x2="944" y1="415" y2="415"/><text fill="#000000" font-family="sans-serif" font-size="11" lengthAdjust="spacing" textLength="65" x="806" y="429.2104">+fly() : void</text><!--MD5=[4b9fa389cfb7f2331906b53b81caf5eb]
class behavoir.fly.FlyWithWings--><rect codeLine="40" fill="#FEFECE" filter="url(#f128dsy08mla9r)" height="60.8047" id="behavoir.fly.FlyWithWings" style="stroke:#A80036;stroke-width:1.5;" width="112" x="652.5" y="375"/><ellipse cx="667.5" cy="391" fill="#ADD1B2" rx="11" ry="11" style="stroke:#A80036;stroke-width:1.0;"/><path d="M670.4688,396.6406 Q669.8906,396.9375 669.25,397.0859 Q668.6094,397.2344 667.9063,397.2344 Q665.4063,397.2344 664.0859,395.5859 Q662.7656,393.9375 662.7656,390.8125 Q662.7656,387.6875 664.0859,386.0313 Q665.4063,384.375 667.9063,384.375 Q668.6094,384.375 669.2578,384.5313 Q669.9063,384.6875 670.4688,384.9844 L670.4688,387.7031 Q669.8438,387.125 669.25,386.8516 Q668.6563,386.5781 668.0313,386.5781 Q666.6875,386.5781 666,387.6484 Q665.3125,388.7188 665.3125,390.8125 Q665.3125,392.9063 666,393.9766 Q666.6875,395.0469 668.0313,395.0469 Q668.6563,395.0469 669.25,394.7734 Q669.8438,394.5 670.4688,393.9219 L670.4688,396.6406 Z " fill="#000000"/><text fill="#000000" font-family="sans-serif" font-size="12" lengthAdjust="spacing" textLength="80" x="681.5" y="395.1543">FlyWithWings</text><line style="stroke:#A80036;stroke-width:1.5;" x1="653.5" x2="763.5" y1="407" y2="407"/><line style="stroke:#A80036;stroke-width:1.5;" x1="653.5" x2="763.5" y1="415" y2="415"/><text fill="#000000" font-family="sans-serif" font-size="11" lengthAdjust="spacing" textLength="65" x="658.5" y="429.2104">+fly() : void</text><!--MD5=[29fc2dfba9c2d35600740861de5f596b]
class behavior.quack.MuteQuack--><rect codeLine="46" fill="#FEFECE" filter="url(#f128dsy08mla9r)" height="60.8047" id="behavior.quack.MuteQuack" style="stroke:#A80036;stroke-width:1.5;" width="102" x="1391.5" y="375"/><ellipse cx="1406.5" cy="391" fill="#ADD1B2" rx="11" ry="11" style="stroke:#A80036;stroke-width:1.0;"/><path d="M1409.4688,396.6406 Q1408.8906,396.9375 1408.25,397.0859 Q1407.6094,397.2344 1406.9063,397.2344 Q1404.4063,397.2344 1403.0859,395.5859 Q1401.7656,393.9375 1401.7656,390.8125 Q1401.7656,387.6875 1403.0859,386.0313 Q1404.4063,384.375 1406.9063,384.375 Q1407.6094,384.375 1408.2578,384.5313 Q1408.9063,384.6875 1409.4688,384.9844 L1409.4688,387.7031 Q1408.8438,387.125 1408.25,386.8516 Q1407.6563,386.5781 1407.0313,386.5781 Q1405.6875,386.5781 1405,387.6484 Q1404.3125,388.7188 1404.3125,390.8125 Q1404.3125,392.9063 1405,393.9766 Q1405.6875,395.0469 1407.0313,395.0469 Q1407.6563,395.0469 1408.25,394.7734 Q1408.8438,394.5 1409.4688,393.9219 L1409.4688,396.6406 Z " fill="#000000"/><text fill="#000000" font-family="sans-serif" font-size="12" lengthAdjust="spacing" textLength="70" x="1420.5" y="395.1543">MuteQuack</text><line style="stroke:#A80036;stroke-width:1.5;" x1="1392.5" x2="1492.5" y1="407" y2="407"/><line style="stroke:#A80036;stroke-width:1.5;" x1="1392.5" x2="1492.5" y1="415" y2="415"/><text fill="#000000" font-family="sans-serif" font-size="11" lengthAdjust="spacing" textLength="85" x="1397.5" y="429.2104">+quack() : void</text><!--MD5=[53b8585490362a8fb58103941aaa2514]
class behavior.quack.Quack--><rect codeLine="49" fill="#FEFECE" filter="url(#f128dsy08mla9r)" height="60.8047" id="behavior.quack.Quack" style="stroke:#A80036;stroke-width:1.5;" width="97" x="1259" y="375"/><ellipse cx="1285.7" cy="391" fill="#ADD1B2" rx="11" ry="11" style="stroke:#A80036;stroke-width:1.0;"/><path d="M1288.6688,396.6406 Q1288.0906,396.9375 1287.45,397.0859 Q1286.8094,397.2344 1286.1063,397.2344 Q1283.6063,397.2344 1282.2859,395.5859 Q1280.9656,393.9375 1280.9656,390.8125 Q1280.9656,387.6875 1282.2859,386.0313 Q1283.6063,384.375 1286.1063,384.375 Q1286.8094,384.375 1287.4578,384.5313 Q1288.1063,384.6875 1288.6688,384.9844 L1288.6688,387.7031 Q1288.0438,387.125 1287.45,386.8516 Q1286.8563,386.5781 1286.2313,386.5781 Q1284.8875,386.5781 1284.2,387.6484 Q1283.5125,388.7188 1283.5125,390.8125 Q1283.5125,392.9063 1284.2,393.9766 Q1284.8875,395.0469 1286.2313,395.0469 Q1286.8563,395.0469 1287.45,394.7734 Q1288.0438,394.5 1288.6688,393.9219 L1288.6688,396.6406 Z " fill="#000000"/><text fill="#000000" font-family="sans-serif" font-size="12" lengthAdjust="spacing" textLength="39" x="1302.3" y="395.1543">Quack</text><line style="stroke:#A80036;stroke-width:1.5;" x1="1260" x2="1355" y1="407" y2="407"/><line style="stroke:#A80036;stroke-width:1.5;" x1="1260" x2="1355" y1="415" y2="415"/><text fill="#000000" font-family="sans-serif" font-size="11" lengthAdjust="spacing" textLength="85" x="1265" y="429.2104">+quack() : void</text><!--MD5=[5baf69906005b15d9ba3a57aa6118ac6]
class behavior.quack.Squeak--><rect codeLine="52" fill="#FEFECE" filter="url(#f128dsy08mla9r)" height="60.8047" id="behavior.quack.Squeak" style="stroke:#A80036;stroke-width:1.5;" width="97" x="1127" y="375"/><ellipse cx="1150.1" cy="391" fill="#ADD1B2" rx="11" ry="11" style="stroke:#A80036;stroke-width:1.0;"/><path d="M1153.0688,396.6406 Q1152.4906,396.9375 1151.85,397.0859 Q1151.2094,397.2344 1150.5063,397.2344 Q1148.0063,397.2344 1146.6859,395.5859 Q1145.3656,393.9375 1145.3656,390.8125 Q1145.3656,387.6875 1146.6859,386.0313 Q1148.0063,384.375 1150.5063,384.375 Q1151.2094,384.375 1151.8578,384.5313 Q1152.5063,384.6875 1153.0688,384.9844 L1153.0688,387.7031 Q1152.4438,387.125 1151.85,386.8516 Q1151.2563,386.5781 1150.6313,386.5781 Q1149.2875,386.5781 1148.6,387.6484 Q1147.9125,388.7188 1147.9125,390.8125 Q1147.9125,392.9063 1148.6,393.9766 Q1149.2875,395.0469 1150.6313,395.0469 Q1151.2563,395.0469 1151.85,394.7734 Q1152.4438,394.5 1153.0688,393.9219 L1153.0688,396.6406 Z " fill="#000000"/><text fill="#000000" font-family="sans-serif" font-size="12" lengthAdjust="spacing" textLength="47" x="1165.9" y="395.1543">Squeak</text><line style="stroke:#A80036;stroke-width:1.5;" x1="1128" x2="1223" y1="407" y2="407"/><line style="stroke:#A80036;stroke-width:1.5;" x1="1128" x2="1223" y1="415" y2="415"/><text fill="#000000" font-family="sans-serif" font-size="11" lengthAdjust="spacing" textLength="85" x="1133" y="429.2104">+quack() : void</text><!--MD5=[e0fb1f2d384ae794fd3e9a6be65b99a7]
class MiniDuckSimulator--><rect codeLine="55" fill="#FEFECE" filter="url(#f128dsy08mla9r)" height="60.8047" id="MiniDuckSimulator" style="stroke:#A80036;stroke-width:1.5;" width="199" x="7" y="79.5"/><ellipse cx="45.85" cy="95.5" fill="#ADD1B2" rx="11" ry="11" style="stroke:#A80036;stroke-width:1.0;"/><path d="M48.8188,101.1406 Q48.2406,101.4375 47.6,101.5859 Q46.9594,101.7344 46.2563,101.7344 Q43.7563,101.7344 42.4359,100.0859 Q41.1156,98.4375 41.1156,95.3125 Q41.1156,92.1875 42.4359,90.5313 Q43.7563,88.875 46.2563,88.875 Q46.9594,88.875 47.6078,89.0313 Q48.2563,89.1875 48.8188,89.4844 L48.8188,92.2031 Q48.1938,91.625 47.6,91.3516 Q47.0063,91.0781 46.3813,91.0781 Q45.0375,91.0781 44.35,92.1484 Q43.6625,93.2188 43.6625,95.3125 Q43.6625,97.4063 44.35,98.4766 Q45.0375,99.5469 46.3813,99.5469 Q47.0063,99.5469 47.6,99.2734 Q48.1938,99 48.8188,98.4219 L48.8188,101.1406 Z " fill="#000000"/><text fill="#000000" font-family="sans-serif" font-size="12" lengthAdjust="spacing" textLength="114" x="65.15" y="99.6543">MiniDuckSimulator</text><line style="stroke:#A80036;stroke-width:1.5;" x1="8" x2="205" y1="111.5" y2="111.5"/><line style="stroke:#A80036;stroke-width:1.5;" x1="8" x2="205" y1="119.5" y2="119.5"/><text fill="#000000" font-family="sans-serif" font-size="11" lengthAdjust="spacing" textLength="187" x="13" y="133.7104">+static main(String[] args) : void</text><!--MD5=[8448db1521aea8eb5736f0b36061a3d7]
reverse link duckTypes.Duck to behavior.FlyBehavior--><path codeLine="2" d="M864.87,160.14 C890.06,170.69 915.52,182.71 938.5,196 C959.17,207.95 980.07,224.46 996.52,238.7 " fill="none" id="duckTypes.Duck-backto-behavior.FlyBehavior" style="stroke:#A80036;stroke-width:1.0;"/><polygon fill="#A80036" points="852.54,155.08,856.5669,161.062,863.6375,159.6457,859.6106,153.6637,852.54,155.08" style="stroke:#A80036;stroke-width:1.0;"/><!--MD5=[d22f9aaddc1aa06c3e4ee372d2891359]
reverse link duckTypes.Duck to behavior.QuackBehavior--><path codeLine="3" d="M865.42,125.61 C937.83,137.32 1024.71,158.35 1095.5,196 C1115.44,206.61 1133.99,223.76 1147.89,238.71 " fill="none" id="duckTypes.Duck-backto-behavior.QuackBehavior" style="stroke:#A80036;stroke-width:1.0;"/><polygon fill="#A80036" points="852.54,123.59,857.8486,128.4705,864.3954,125.4473,859.0868,120.5669,852.54,123.59" style="stroke:#A80036;stroke-width:1.0;"/><!--MD5=[41803bc441d7586c9b6d7fece16cc6e8]
reverse link duckTypes.Duck to duckTypes.DecoyDuck--><path d="M566.24,127.25 C499.43,139.23 422.23,160 359.5,196 C340.96,206.64 324.31,223.79 312.01,238.74 " fill="none" id="duckTypes.Duck-backto-duckTypes.DecoyDuck" style="stroke:#A80036;stroke-width:1.0;"/><polygon fill="none" points="565.27,120.31,586.15,123.88,567.6,134.12,565.27,120.31" style="stroke:#A80036;stroke-width:1.0;"/><!--MD5=[8aa385111fc4283891c03c7a30c65c39]
reverse link duckTypes.Duck to duckTypes.MallardDuck--><path d="M568.01,161.28 C545.61,171.34 523.39,182.91 503.5,196 C485.72,207.7 468.78,224.36 455.81,238.76 " fill="none" id="duckTypes.Duck-backto-duckTypes.MallardDuck" style="stroke:#A80036;stroke-width:1.0;"/><polygon fill="none" points="565.27,154.84,586.41,153.36,570.81,167.7,565.27,154.84" style="stroke:#A80036;stroke-width:1.0;"/><!--MD5=[a647cfc22bbceb5b4f4092fac50b403a]
reverse link duckTypes.Duck to duckTypes.ModelDuck--><path d="M642.05,193.99 C626.97,210.14 612.12,226.05 600.04,238.99 " fill="none" id="duckTypes.Duck-backto-duckTypes.ModelDuck" style="stroke:#A80036;stroke-width:1.0;"/><polygon fill="none" points="637.11,189.01,655.88,179.17,647.35,198.56,637.11,189.01" style="stroke:#A80036;stroke-width:1.0;"/><!--MD5=[514f1baec3dd4af1d2da9f4102ce96fb]
reverse link duckTypes.Duck to duckTypes.RedheadDuck--><path d="M719.5,199.41 C719.5,213.67 719.5,227.5 719.5,238.99 " fill="none" id="duckTypes.Duck-backto-duckTypes.RedheadDuck" style="stroke:#A80036;stroke-width:1.0;"/><polygon fill="none" points="712.5,199.17,719.5,179.17,726.5,199.17,712.5,199.17" style="stroke:#A80036;stroke-width:1.0;"/><!--MD5=[f139e3555d87b190287fef2c81260464]
reverse link duckTypes.Duck to duckTypes.RubberDuck--><path d="M798.01,193.99 C813.29,210.14 828.34,226.05 840.59,238.99 " fill="none" id="duckTypes.Duck-backto-duckTypes.RubberDuck" style="stroke:#A80036;stroke-width:1.0;"/><polygon fill="none" points="792.65,198.51,783.99,179.17,802.82,188.88,792.65,198.51" style="stroke:#A80036;stroke-width:1.0;"/><!--MD5=[232ecb83b684c14ad279dae3c03f5c20]
reverse link behavior.FlyBehavior to behavoir.fly.FlyNoWay--><path d="M1027.38,320.52 C1026.97,338.8 1026.52,358.9 1026.16,374.84 " fill="none" id="behavior.FlyBehavior-backto-behavoir.fly.FlyNoWay" style="stroke:#A80036;stroke-width:1.0;stroke-dasharray:7.0,7.0;"/><polygon fill="none" points="1020.39,320.08,1027.83,300.24,1034.38,320.39,1020.39,320.08" style="stroke:#A80036;stroke-width:1.0;"/><!--MD5=[092f98605639769760609a66c38433e5]
reverse link behavior.FlyBehavior to behavoir.fly.FlyRocketPowered--><path d="M978.48,313.47 C955.17,333.49 928.01,356.82 907.02,374.84 " fill="none" id="behavior.FlyBehavior-backto-behavoir.fly.FlyRocketPowered" style="stroke:#A80036;stroke-width:1.0;stroke-dasharray:7.0,7.0;"/><polygon fill="none" points="974.15,307.96,993.88,300.24,983.27,318.58,974.15,307.96" style="stroke:#A80036;stroke-width:1.0;"/><!--MD5=[7056dc0ddba7a3e2e99e5d470d060088]
reverse link behavior.FlyBehavior to behavoir.fly.FlyWithWings--><path d="M971,310.15 C960.58,315.72 949.51,320.67 938.5,324 C905.27,334.05 814.29,318.06 782.5,332 C761.58,341.17 743.21,359.09 730,374.81 " fill="none" id="behavior.FlyBehavior-backto-behavoir.fly.FlyWithWings" style="stroke:#A80036;stroke-width:1.0;stroke-dasharray:7.0,7.0;"/><polygon fill="none" points="967.55,304.05,988.35,300.02,974.6,316.15,967.55,304.05" style="stroke:#A80036;stroke-width:1.0;"/><!--MD5=[fc325d98b2b2c6201eb7d6afd171506c]
reverse link behavior.QuackBehavior to behavior.quack.MuteQuack--><path d="M1251.9,284.89 C1290.57,294.29 1336.58,309.18 1373.5,332 C1391.53,343.14 1408.05,360.13 1420.4,374.86 " fill="none" id="behavior.QuackBehavior-backto-behavior.quack.MuteQuack" style="stroke:#A80036;stroke-width:1.0;stroke-dasharray:7.0,7.0;"/><polygon fill="none" points="1250.09,291.65,1232.14,280.4,1253.19,278,1250.09,291.65" style="stroke:#A80036;stroke-width:1.0;"/><!--MD5=[0843cd8ee206b843a1bf76ba48d3f57e]
reverse link behavior.QuackBehavior to behavior.quack.Quack--><path d="M1222.29,313.75 C1228.85,319.78 1235.4,325.97 1241.5,332 C1255.29,345.65 1269.89,361.52 1281.84,374.92 " fill="none" id="behavior.QuackBehavior-backto-behavior.quack.Quack" style="stroke:#A80036;stroke-width:1.0;stroke-dasharray:7.0,7.0;"/><polygon fill="none" points="1217.37,318.74,1207.19,300.15,1226.74,308.34,1217.37,318.74" style="stroke:#A80036;stroke-width:1.0;"/><!--MD5=[58b44d7fd40e9d6726b3e60126c671c3]
reverse link behavior.QuackBehavior to behavior.quack.Squeak--><path d="M1173.62,320.52 C1174.03,338.8 1174.48,358.9 1174.84,374.84 " fill="none" id="behavior.QuackBehavior-backto-behavior.quack.Squeak" style="stroke:#A80036;stroke-width:1.0;stroke-dasharray:7.0,7.0;"/><polygon fill="none" points="1166.62,320.39,1173.17,300.24,1180.61,320.08,1166.62,320.39" style="stroke:#A80036;stroke-width:1.0;"/><!--MD5=[45c7c06c8a02292fc0b2156cad958d8a]
@startuml DuckExample
skinparam ClassAttributeIconSize 0
duckTypes.Duck *- - behavior.FlyBehavior
duckTypes.Duck *- - behavior.QuackBehavior

abstract duckTypes.Duck {
    - flyBehavior: FlyBehavior 
    - quackBehavoir: QuackBehavior

    + performFly(): void
    + performQuack(): void
    + swim(): void
    + setFlyBehavior(FlyBehavior fb) : void
    + setQuackBehavior(QuackBehavior qb): void
}

class duckTypes.DecoyDuck extends duckTypes.Duck {
    + display() : void
}
class duckTypes.MallardDuck extends duckTypes.Duck {
    + display() : void
}
class duckTypes.ModelDuck extends duckTypes.Duck {
    + display() : void
}
class duckTypes.RedheadDuck extends duckTypes.Duck {
    + display() : void
}
class duckTypes.RubberDuck extends duckTypes.Duck {
    + display() : void
}
interface behavior.FlyBehavior {
    + fly() : void
}
class behavoir.fly.FlyNoWay implements behavior.FlyBehavior {
    + fly() : void
}
class behavoir.fly.FlyRocketPowered implements behavior.FlyBehavior {
    + fly() : void
}
class behavoir.fly.FlyWithWings implements behavior.FlyBehavior {
    + fly() : void
}
interface behavior.QuackBehavior {
    + quack(): void
}
class behavior.quack.MuteQuack implements behavior.QuackBehavior {
    + quack() : void
}
class behavior.quack.Quack implements behavior.QuackBehavior {
    + quack() : void
}
class behavior.quack.Squeak implements behavior.QuackBehavior {
    + quack() : void
}
class MiniDuckSimulator{
    + static main(String[] args) : void
}
@enduml

PlantUML version 1.2021.00(Sun Jan 10 02:25:05 PST 2021)
(GPL source distribution)
Java Runtime: Java(TM) SE Runtime Environment
JVM: Java HotSpot(TM) 64-Bit Server VM
Default Encoding: UTF-8
Language: en
Country: CA
--></g></svg>