<?xml version="1.0" encoding="UTF-8" standalone="no"?><svg xmlns="http://www.w3.org/2000/svg" xmlns:xlink="http://www.w3.org/1999/xlink" contentScriptType="application/ecmascript" contentStyleType="text/css" height="297px" preserveAspectRatio="none" style="width:1463px;height:297px;" version="1.1" viewBox="0 0 1463 297" width="1463px" zoomAndPan="magnify"><defs><filter height="300%" id="f6n2nhrote2mv" width="300%" x="-1" y="-1"><feGaussianBlur result="blurOut" stdDeviation="2.0"/><feColorMatrix in="blurOut" result="blurOut2" type="matrix" values="0 0 0 0 0 0 0 0 0 0 0 0 0 0 0 0 0 0 .4 0"/><feOffset dx="4.0" dy="4.0" in="blurOut2" result="blurOut3"/><feBlend in="SourceGraphic" in2="blurOut3" mode="normal"/></filter></defs><g><!--MD5=[e4003319f18209e837f10cf867afd2c3]
cluster characters--><polygon fill="#FFFFFF" filter="url(#f6n2nhrote2mv)" points="230.5,6,321.5,6,328.5,28.2969,724.5,28.2969,724.5,282.5,230.5,282.5,230.5,6" style="stroke:#000000;stroke-width:1.5;"/><line style="stroke:#000000;stroke-width:1.5;" x1="230.5" x2="328.5" y1="28.2969" y2="28.2969"/><text fill="#000000" font-family="sans-serif" font-size="14" font-weight="bold" lengthAdjust="spacing" textLength="85" x="234.5" y="20.9951">characters</text><!--MD5=[8f990bdb391e4965dfed467b565660e1]
cluster behaviors--><polygon fill="#FFFFFF" filter="url(#f6n2nhrote2mv)" points="1024.5,18.5,1108.5,18.5,1115.5,40.7969,1186.5,40.7969,1186.5,130.5,1024.5,130.5,1024.5,18.5" style="stroke:#000000;stroke-width:1.5;"/><line style="stroke:#000000;stroke-width:1.5;" x1="1024.5" x2="1115.5" y1="40.7969" y2="40.7969"/><text fill="#000000" font-family="sans-serif" font-size="14" font-weight="bold" lengthAdjust="spacing" textLength="78" x="1028.5" y="33.4951">behaviors</text><!--MD5=[59c237843950915ff17e8be3d58a7862]
cluster behaviors.weaponBehaviors--><polygon fill="#FFFFFF" filter="url(#f6n2nhrote2mv)" points="756.5,162.5,986.5,162.5,993.5,184.7969,1446.5,184.7969,1446.5,290.5,756.5,290.5,756.5,162.5" style="stroke:#000000;stroke-width:1.5;"/><line style="stroke:#000000;stroke-width:1.5;" x1="756.5" x2="993.5" y1="184.7969" y2="184.7969"/><text fill="#000000" font-family="sans-serif" font-size="14" font-weight="bold" lengthAdjust="spacing" textLength="224" x="760.5" y="177.4951">behaviors.weaponBehaviors</text><!--MD5=[384382994d211640241289ea9745c2eb]
class characters.Character--><rect codeLine="3" fill="#FEFECE" filter="url(#f6n2nhrote2mv)" height="86.4141" id="characters.Character" style="stroke:#A80036;stroke-width:1.5;" width="241" x="419" y="41"/><ellipse cx="506.25" cy="57" fill="#A9DCDF" rx="11" ry="11" style="stroke:#A80036;stroke-width:1.0;"/><path d="M506.3594,52.3438 L505.2031,57.4219 L507.5313,57.4219 L506.3594,52.3438 Z M504.875,50.1094 L507.8594,50.1094 L511.2188,62.5 L508.7656,62.5 L508,59.4375 L504.7188,59.4375 L503.9688,62.5 L501.5313,62.5 L504.875,50.1094 Z " fill="#000000"/><text fill="#000000" font-family="sans-serif" font-size="12" font-style="italic" lengthAdjust="spacing" textLength="58" x="526.75" y="61.1543">Character</text><line style="stroke:#A80036;stroke-width:1.5;" x1="420" x2="659" y1="73" y2="73"/><text fill="#000000" font-family="sans-serif" font-size="11" lengthAdjust="spacing" textLength="154" x="425" y="87.2104">-weapon : WeaponBehavior</text><line style="stroke:#A80036;stroke-width:1.5;" x1="420" x2="659" y1="93.8047" y2="93.8047"/><text fill="#000000" font-family="sans-serif" font-size="11" lengthAdjust="spacing" textLength="66" x="425" y="108.0151">+figt(): void</text><text fill="#000000" font-family="sans-serif" font-size="11" lengthAdjust="spacing" textLength="229" x="425" y="120.8198">+setWeapon(w : WeaponBehavior) : void</text><!--MD5=[34a2d32e69e24100e8b168fc902c5334]
class characters.Queen--><rect codeLine="8" fill="#FEFECE" filter="url(#f6n2nhrote2mv)" height="60.8047" id="characters.Queen" style="stroke:#A80036;stroke-width:1.5;" width="89" x="247" y="205.5"/><ellipse cx="269.2" cy="221.5" fill="#ADD1B2" rx="11" ry="11" style="stroke:#A80036;stroke-width:1.0;"/><path d="M272.1688,227.1406 Q271.5906,227.4375 270.95,227.5859 Q270.3094,227.7344 269.6063,227.7344 Q267.1063,227.7344 265.7859,226.0859 Q264.4656,224.4375 264.4656,221.3125 Q264.4656,218.1875 265.7859,216.5313 Q267.1063,214.875 269.6063,214.875 Q270.3094,214.875 270.9578,215.0313 Q271.6063,215.1875 272.1688,215.4844 L272.1688,218.2031 Q271.5438,217.625 270.95,217.3516 Q270.3563,217.0781 269.7313,217.0781 Q268.3875,217.0781 267.7,218.1484 Q267.0125,219.2188 267.0125,221.3125 Q267.0125,223.4063 267.7,224.4766 Q268.3875,225.5469 269.7313,225.5469 Q270.3563,225.5469 270.95,225.2734 Q271.5438,225 272.1688,224.4219 L272.1688,227.1406 Z " fill="#000000"/><text fill="#000000" font-family="sans-serif" font-size="12" lengthAdjust="spacing" textLength="41" x="284.8" y="225.6543">Queen</text><line style="stroke:#A80036;stroke-width:1.5;" x1="248" x2="335" y1="237.5" y2="237.5"/><line style="stroke:#A80036;stroke-width:1.5;" x1="248" x2="335" y1="245.5" y2="245.5"/><text fill="#000000" font-family="sans-serif" font-size="11" lengthAdjust="spacing" textLength="77" x="253" y="259.7104">+fight() : void</text><!--MD5=[e3da196e51123400f2b136a11c888d1b]
class characters.Troll--><rect codeLine="11" fill="#FEFECE" filter="url(#f6n2nhrote2mv)" height="60.8047" id="characters.Troll" style="stroke:#A80036;stroke-width:1.5;" width="89" x="371" y="205.5"/><ellipse cx="399.95" cy="221.5" fill="#ADD1B2" rx="11" ry="11" style="stroke:#A80036;stroke-width:1.0;"/><path d="M402.9188,227.1406 Q402.3406,227.4375 401.7,227.5859 Q401.0594,227.7344 400.3563,227.7344 Q397.8563,227.7344 396.5359,226.0859 Q395.2156,224.4375 395.2156,221.3125 Q395.2156,218.1875 396.5359,216.5313 Q397.8563,214.875 400.3563,214.875 Q401.0594,214.875 401.7078,215.0313 Q402.3563,215.1875 402.9188,215.4844 L402.9188,218.2031 Q402.2938,217.625 401.7,217.3516 Q401.1063,217.0781 400.4813,217.0781 Q399.1375,217.0781 398.45,218.1484 Q397.7625,219.2188 397.7625,221.3125 Q397.7625,223.4063 398.45,224.4766 Q399.1375,225.5469 400.4813,225.5469 Q401.1063,225.5469 401.7,225.2734 Q402.2938,225 402.9188,224.4219 L402.9188,227.1406 Z " fill="#000000"/><text fill="#000000" font-family="sans-serif" font-size="12" lengthAdjust="spacing" textLength="26" x="417.05" y="225.6543">Troll</text><line style="stroke:#A80036;stroke-width:1.5;" x1="372" x2="459" y1="237.5" y2="237.5"/><line style="stroke:#A80036;stroke-width:1.5;" x1="372" x2="459" y1="245.5" y2="245.5"/><text fill="#000000" font-family="sans-serif" font-size="11" lengthAdjust="spacing" textLength="77" x="377" y="259.7104">+fight() : void</text><!--MD5=[caa725a6d849968e9b4fcb666e348e10]
class characters.King--><rect codeLine="14" fill="#FEFECE" filter="url(#f6n2nhrote2mv)" height="60.8047" id="characters.King" style="stroke:#A80036;stroke-width:1.5;" width="89" x="495" y="205.5"/><ellipse cx="523.95" cy="221.5" fill="#ADD1B2" rx="11" ry="11" style="stroke:#A80036;stroke-width:1.0;"/><path d="M526.9188,227.1406 Q526.3406,227.4375 525.7,227.5859 Q525.0594,227.7344 524.3563,227.7344 Q521.8563,227.7344 520.5359,226.0859 Q519.2156,224.4375 519.2156,221.3125 Q519.2156,218.1875 520.5359,216.5313 Q521.8563,214.875 524.3563,214.875 Q525.0594,214.875 525.7078,215.0313 Q526.3563,215.1875 526.9188,215.4844 L526.9188,218.2031 Q526.2938,217.625 525.7,217.3516 Q525.1063,217.0781 524.4813,217.0781 Q523.1375,217.0781 522.45,218.1484 Q521.7625,219.2188 521.7625,221.3125 Q521.7625,223.4063 522.45,224.4766 Q523.1375,225.5469 524.4813,225.5469 Q525.1063,225.5469 525.7,225.2734 Q526.2938,225 526.9188,224.4219 L526.9188,227.1406 Z " fill="#000000"/><text fill="#000000" font-family="sans-serif" font-size="12" lengthAdjust="spacing" textLength="26" x="541.05" y="225.6543">King</text><line style="stroke:#A80036;stroke-width:1.5;" x1="496" x2="583" y1="237.5" y2="237.5"/><line style="stroke:#A80036;stroke-width:1.5;" x1="496" x2="583" y1="245.5" y2="245.5"/><text fill="#000000" font-family="sans-serif" font-size="11" lengthAdjust="spacing" textLength="77" x="501" y="259.7104">+fight() : void</text><!--MD5=[0d5245916229488fb5cd3963c813fe74]
class characters.Knight--><rect codeLine="17" fill="#FEFECE" filter="url(#f6n2nhrote2mv)" height="60.8047" id="characters.Knight" style="stroke:#A80036;stroke-width:1.5;" width="89" x="619" y="205.5"/><ellipse cx="642.1" cy="221.5" fill="#ADD1B2" rx="11" ry="11" style="stroke:#A80036;stroke-width:1.0;"/><path d="M645.0688,227.1406 Q644.4906,227.4375 643.85,227.5859 Q643.2094,227.7344 642.5063,227.7344 Q640.0063,227.7344 638.6859,226.0859 Q637.3656,224.4375 637.3656,221.3125 Q637.3656,218.1875 638.6859,216.5313 Q640.0063,214.875 642.5063,214.875 Q643.2094,214.875 643.8578,215.0313 Q644.5063,215.1875 645.0688,215.4844 L645.0688,218.2031 Q644.4438,217.625 643.85,217.3516 Q643.2563,217.0781 642.6313,217.0781 Q641.2875,217.0781 640.6,218.1484 Q639.9125,219.2188 639.9125,221.3125 Q639.9125,223.4063 640.6,224.4766 Q641.2875,225.5469 642.6313,225.5469 Q643.2563,225.5469 643.85,225.2734 Q644.4438,225 645.0688,224.4219 L645.0688,227.1406 Z " fill="#000000"/><text fill="#000000" font-family="sans-serif" font-size="12" lengthAdjust="spacing" textLength="39" x="657.9" y="225.6543">Knight</text><line style="stroke:#A80036;stroke-width:1.5;" x1="620" x2="707" y1="237.5" y2="237.5"/><line style="stroke:#A80036;stroke-width:1.5;" x1="620" x2="707" y1="245.5" y2="245.5"/><text fill="#000000" font-family="sans-serif" font-size="11" lengthAdjust="spacing" textLength="77" x="625" y="259.7104">+fight() : void</text><!--MD5=[00b505c42a29bf3132ef3f1abffb2d7b]
class behaviors.WeaponBehavior--><rect codeLine="20" fill="#FEFECE" filter="url(#f6n2nhrote2mv)" height="60.8047" id="behaviors.WeaponBehavior" style="stroke:#A80036;stroke-width:1.5;" width="130" x="1040.5" y="53.5"/><ellipse cx="1055.5" cy="69.5" fill="#B4A7E5" rx="11" ry="11" style="stroke:#A80036;stroke-width:1.0;"/><path d="M1051.4219,65.2656 L1051.4219,63.1094 L1058.8125,63.1094 L1058.8125,65.2656 L1056.3438,65.2656 L1056.3438,73.3438 L1058.8125,73.3438 L1058.8125,75.5 L1051.4219,75.5 L1051.4219,73.3438 L1053.8906,73.3438 L1053.8906,65.2656 L1051.4219,65.2656 Z " fill="#000000"/><text fill="#000000" font-family="sans-serif" font-size="12" font-style="italic" lengthAdjust="spacing" textLength="98" x="1069.5" y="73.6543">WeaponBehavior</text><line style="stroke:#A80036;stroke-width:1.5;" x1="1041.5" x2="1169.5" y1="85.5" y2="85.5"/><line style="stroke:#A80036;stroke-width:1.5;" x1="1041.5" x2="1169.5" y1="93.5" y2="93.5"/><text fill="#000000" font-family="sans-serif" font-size="11" lengthAdjust="spacing" textLength="117" x="1046.5" y="107.7104">+useWeapon() : void</text><!--MD5=[f5e217c766aaa295935e3708fd8a42be]
class behaviors.weaponBehaviors.AxeBehavior--><rect codeLine="23" fill="#FEFECE" filter="url(#f6n2nhrote2mv)" height="60.8047" id="behaviors.weaponBehaviors.AxeBehavior" style="stroke:#A80036;stroke-width:1.5;" width="108" x="1314.5" y="205.5"/><ellipse cx="1329.5" cy="221.5" fill="#ADD1B2" rx="11" ry="11" style="stroke:#A80036;stroke-width:1.0;"/><path d="M1332.4688,227.1406 Q1331.8906,227.4375 1331.25,227.5859 Q1330.6094,227.7344 1329.9063,227.7344 Q1327.4063,227.7344 1326.0859,226.0859 Q1324.7656,224.4375 1324.7656,221.3125 Q1324.7656,218.1875 1326.0859,216.5313 Q1327.4063,214.875 1329.9063,214.875 Q1330.6094,214.875 1331.2578,215.0313 Q1331.9063,215.1875 1332.4688,215.4844 L1332.4688,218.2031 Q1331.8438,217.625 1331.25,217.3516 Q1330.6563,217.0781 1330.0313,217.0781 Q1328.6875,217.0781 1328,218.1484 Q1327.3125,219.2188 1327.3125,221.3125 Q1327.3125,223.4063 1328,224.4766 Q1328.6875,225.5469 1330.0313,225.5469 Q1330.6563,225.5469 1331.25,225.2734 Q1331.8438,225 1332.4688,224.4219 L1332.4688,227.1406 Z " fill="#000000"/><text fill="#000000" font-family="sans-serif" font-size="12" lengthAdjust="spacing" textLength="76" x="1343.5" y="225.6543">AxeBehavior</text><line style="stroke:#A80036;stroke-width:1.5;" x1="1315.5" x2="1421.5" y1="237.5" y2="237.5"/><line style="stroke:#A80036;stroke-width:1.5;" x1="1315.5" x2="1421.5" y1="245.5" y2="245.5"/><text fill="#000000" font-family="sans-serif" font-size="11" lengthAdjust="spacing" textLength="82" x="1320.5" y="259.7104">+useWeapon()</text><!--MD5=[f599087ddb3cdfeb274b312cdaab30c0]
class behaviors.weaponBehaviors.BowAndArrowBehavior--><rect codeLine="26" fill="#FEFECE" filter="url(#f6n2nhrote2mv)" height="60.8047" id="behaviors.weaponBehaviors.BowAndArrowBehavior" style="stroke:#A80036;stroke-width:1.5;" width="170" x="1109.5" y="205.5"/><ellipse cx="1124.5" cy="221.5" fill="#ADD1B2" rx="11" ry="11" style="stroke:#A80036;stroke-width:1.0;"/><path d="M1127.4688,227.1406 Q1126.8906,227.4375 1126.25,227.5859 Q1125.6094,227.7344 1124.9063,227.7344 Q1122.4063,227.7344 1121.0859,226.0859 Q1119.7656,224.4375 1119.7656,221.3125 Q1119.7656,218.1875 1121.0859,216.5313 Q1122.4063,214.875 1124.9063,214.875 Q1125.6094,214.875 1126.2578,215.0313 Q1126.9063,215.1875 1127.4688,215.4844 L1127.4688,218.2031 Q1126.8438,217.625 1126.25,217.3516 Q1125.6563,217.0781 1125.0313,217.0781 Q1123.6875,217.0781 1123,218.1484 Q1122.3125,219.2188 1122.3125,221.3125 Q1122.3125,223.4063 1123,224.4766 Q1123.6875,225.5469 1125.0313,225.5469 Q1125.6563,225.5469 1126.25,225.2734 Q1126.8438,225 1127.4688,224.4219 L1127.4688,227.1406 Z " fill="#000000"/><text fill="#000000" font-family="sans-serif" font-size="12" lengthAdjust="spacing" textLength="138" x="1138.5" y="225.6543">BowAndArrowBehavior</text><line style="stroke:#A80036;stroke-width:1.5;" x1="1110.5" x2="1278.5" y1="237.5" y2="237.5"/><line style="stroke:#A80036;stroke-width:1.5;" x1="1110.5" x2="1278.5" y1="245.5" y2="245.5"/><text fill="#000000" font-family="sans-serif" font-size="11" lengthAdjust="spacing" textLength="82" x="1115.5" y="259.7104">+useWeapon()</text><!--MD5=[a2dd204d02cdcbcb4e9e6901ec8b959e]
class behaviors.weaponBehaviors.KnifeBehavior--><rect codeLine="29" fill="#FEFECE" filter="url(#f6n2nhrote2mv)" height="60.8047" id="behaviors.weaponBehaviors.KnifeBehavior" style="stroke:#A80036;stroke-width:1.5;" width="116" x="958.5" y="205.5"/><ellipse cx="973.5" cy="221.5" fill="#ADD1B2" rx="11" ry="11" style="stroke:#A80036;stroke-width:1.0;"/><path d="M976.4688,227.1406 Q975.8906,227.4375 975.25,227.5859 Q974.6094,227.7344 973.9063,227.7344 Q971.4063,227.7344 970.0859,226.0859 Q968.7656,224.4375 968.7656,221.3125 Q968.7656,218.1875 970.0859,216.5313 Q971.4063,214.875 973.9063,214.875 Q974.6094,214.875 975.2578,215.0313 Q975.9063,215.1875 976.4688,215.4844 L976.4688,218.2031 Q975.8438,217.625 975.25,217.3516 Q974.6563,217.0781 974.0313,217.0781 Q972.6875,217.0781 972,218.1484 Q971.3125,219.2188 971.3125,221.3125 Q971.3125,223.4063 972,224.4766 Q972.6875,225.5469 974.0313,225.5469 Q974.6563,225.5469 975.25,225.2734 Q975.8438,225 976.4688,224.4219 L976.4688,227.1406 Z " fill="#000000"/><text fill="#000000" font-family="sans-serif" font-size="12" lengthAdjust="spacing" textLength="84" x="987.5" y="225.6543">KnifeBehavior</text><line style="stroke:#A80036;stroke-width:1.5;" x1="959.5" x2="1073.5" y1="237.5" y2="237.5"/><line style="stroke:#A80036;stroke-width:1.5;" x1="959.5" x2="1073.5" y1="245.5" y2="245.5"/><text fill="#000000" font-family="sans-serif" font-size="11" lengthAdjust="spacing" textLength="82" x="964.5" y="259.7104">+useWeapon()</text><!--MD5=[34d553e4d4432e924693c416e0b5c1cd]
class behaviors.weaponBehaviors.SwordBehavior--><rect codeLine="32" fill="#FEFECE" filter="url(#f6n2nhrote2mv)" height="60.8047" id="behaviors.weaponBehaviors.SwordBehavior" style="stroke:#A80036;stroke-width:1.5;" width="124" x="799.5" y="205.5"/><ellipse cx="814.5" cy="221.5" fill="#ADD1B2" rx="11" ry="11" style="stroke:#A80036;stroke-width:1.0;"/><path d="M817.4688,227.1406 Q816.8906,227.4375 816.25,227.5859 Q815.6094,227.7344 814.9063,227.7344 Q812.4063,227.7344 811.0859,226.0859 Q809.7656,224.4375 809.7656,221.3125 Q809.7656,218.1875 811.0859,216.5313 Q812.4063,214.875 814.9063,214.875 Q815.6094,214.875 816.2578,215.0313 Q816.9063,215.1875 817.4688,215.4844 L817.4688,218.2031 Q816.8438,217.625 816.25,217.3516 Q815.6563,217.0781 815.0313,217.0781 Q813.6875,217.0781 813,218.1484 Q812.3125,219.2188 812.3125,221.3125 Q812.3125,223.4063 813,224.4766 Q813.6875,225.5469 815.0313,225.5469 Q815.6563,225.5469 816.25,225.2734 Q816.8438,225 817.4688,224.4219 L817.4688,227.1406 Z " fill="#000000"/><text fill="#000000" font-family="sans-serif" font-size="12" lengthAdjust="spacing" textLength="92" x="828.5" y="225.6543">SwordBehavior</text><line style="stroke:#A80036;stroke-width:1.5;" x1="800.5" x2="922.5" y1="237.5" y2="237.5"/><line style="stroke:#A80036;stroke-width:1.5;" x1="800.5" x2="922.5" y1="245.5" y2="245.5"/><text fill="#000000" font-family="sans-serif" font-size="11" lengthAdjust="spacing" textLength="82" x="805.5" y="259.7104">+useWeapon()</text><!--MD5=[d0497865c591b752d9f81c3ace406775]
class game--><rect codeLine="35" fill="#FEFECE" filter="url(#f6n2nhrote2mv)" height="60.8047" id="game" style="stroke:#A80036;stroke-width:1.5;" width="207" x="7" y="53.5"/><ellipse cx="88.75" cy="69.5" fill="#ADD1B2" rx="11" ry="11" style="stroke:#A80036;stroke-width:1.0;"/><path d="M91.7188,75.1406 Q91.1406,75.4375 90.5,75.5859 Q89.8594,75.7344 89.1563,75.7344 Q86.6563,75.7344 85.3359,74.0859 Q84.0156,72.4375 84.0156,69.3125 Q84.0156,66.1875 85.3359,64.5313 Q86.6563,62.875 89.1563,62.875 Q89.8594,62.875 90.5078,63.0313 Q91.1563,63.1875 91.7188,63.4844 L91.7188,66.2031 Q91.0938,65.625 90.5,65.3516 Q89.9063,65.0781 89.2813,65.0781 Q87.9375,65.0781 87.25,66.1484 Q86.5625,67.2188 86.5625,69.3125 Q86.5625,71.4063 87.25,72.4766 Q87.9375,73.5469 89.2813,73.5469 Q89.9063,73.5469 90.5,73.2734 Q91.0938,73 91.7188,72.4219 L91.7188,75.1406 Z " fill="#000000"/><text fill="#000000" font-family="sans-serif" font-size="12" lengthAdjust="spacing" textLength="35" x="109.25" y="73.6543">game</text><line style="stroke:#A80036;stroke-width:1.5;" x1="8" x2="213" y1="85.5" y2="85.5"/><line style="stroke:#A80036;stroke-width:1.5;" x1="8" x2="213" y1="93.5" y2="93.5"/><text fill="#000000" font-family="sans-serif" font-size="11" lengthAdjust="spacing" textLength="195" x="13" y="107.7104">+static main(args : String[]) : void</text><!--MD5=[69d760ed69911b3d58f5b299ff1963ba]
reverse link characters.Character to characters.Queen--><path d="M400.04,119.99 C383.53,127.28 367.58,136.03 353.5,146.5 C332.88,161.84 316.57,186.11 305.87,205.35 " fill="none" id="characters.Character-backto-characters.Queen" style="stroke:#A80036;stroke-width:1.0;"/><polygon fill="none" points="397.68,113.39,418.84,112.35,402.94,126.36,397.68,113.39" style="stroke:#A80036;stroke-width:1.0;"/><!--MD5=[9afc48e6715968d2adcb896c3c630f60]
reverse link characters.Character to characters.Troll--><path d="M481.43,141.92 C480.1,143.45 478.78,144.98 477.5,146.5 C461.78,165.15 446.04,187.68 434.35,205.34 " fill="none" id="characters.Character-backto-characters.Troll" style="stroke:#A80036;stroke-width:1.0;"/><polygon fill="none" points="476.42,137.04,495.12,127.07,486.72,146.52,476.42,137.04" style="stroke:#A80036;stroke-width:1.0;"/><!--MD5=[24e227635e7cf0e577e21df045e8396a]
reverse link characters.Character to characters.King--><path d="M539.5,147.44 C539.5,167.55 539.5,188.89 539.5,205.48 " fill="none" id="characters.Character-backto-characters.King" style="stroke:#A80036;stroke-width:1.0;"/><polygon fill="none" points="532.5,147.18,539.5,127.18,546.5,147.18,532.5,147.18" style="stroke:#A80036;stroke-width:1.0;"/><!--MD5=[db817441c368242aa935fe3dd05ed924]
reverse link characters.Character to characters.Knight--><path d="M597.57,141.92 C598.9,143.45 600.22,144.98 601.5,146.5 C617.22,165.15 632.96,187.68 644.65,205.34 " fill="none" id="characters.Character-backto-characters.Knight" style="stroke:#A80036;stroke-width:1.0;"/><polygon fill="none" points="592.28,146.52,583.88,127.07,602.58,137.04,592.28,146.52" style="stroke:#A80036;stroke-width:1.0;"/><!--MD5=[0e335d53c904461c1f45e52c3b4b63e0]
reverse link behaviors.WeaponBehavior to behaviors.weaponBehaviors.AxeBehavior--><path d="M1190.24,100.8 C1225.54,110.15 1265.65,124.6 1297.5,146.5 C1319.74,161.79 1338.51,186.06 1351.15,205.32 " fill="none" id="behaviors.WeaponBehavior-backto-behaviors.weaponBehaviors.AxeBehavior" style="stroke:#A80036;stroke-width:1.0;stroke-dasharray:7.0,7.0;"/><polygon fill="none" points="1188.41,107.55,1170.65,95.99,1191.74,93.96,1188.41,107.55" style="stroke:#A80036;stroke-width:1.0;"/><!--MD5=[f93183a594ef6f9adc2c1c484b990ba3]
reverse link behaviors.WeaponBehavior to behaviors.weaponBehaviors.BowAndArrowBehavior--><path d="M1133.35,131.94 C1147.61,155.96 1164.53,184.49 1176.95,205.43 " fill="none" id="behaviors.WeaponBehavior-backto-behaviors.weaponBehaviors.BowAndArrowBehavior" style="stroke:#A80036;stroke-width:1.0;stroke-dasharray:7.0,7.0;"/><polygon fill="none" points="1127.27,135.41,1123.08,114.64,1139.31,128.26,1127.27,135.41" style="stroke:#A80036;stroke-width:1.0;"/><!--MD5=[702f56c81596b29282bcb3fe82fbf4a8]
reverse link behaviors.WeaponBehavior to behaviors.weaponBehaviors.KnifeBehavior--><path d="M1077.65,131.94 C1063.39,155.96 1046.47,184.49 1034.05,205.43 " fill="none" id="behaviors.WeaponBehavior-backto-behaviors.weaponBehaviors.KnifeBehavior" style="stroke:#A80036;stroke-width:1.0;stroke-dasharray:7.0,7.0;"/><polygon fill="none" points="1071.69,128.26,1087.92,114.64,1083.73,135.41,1071.69,128.26" style="stroke:#A80036;stroke-width:1.0;"/><!--MD5=[bc256e7b9d56c4697cfebe682be811cc]
reverse link behaviors.WeaponBehavior to behaviors.weaponBehaviors.SwordBehavior--><path d="M1021.13,107.99 C994.34,117.5 965.48,130.19 941.5,146.5 C918.21,162.34 897.09,186.33 882.4,205.34 " fill="none" id="behaviors.WeaponBehavior-backto-behaviors.weaponBehaviors.SwordBehavior" style="stroke:#A80036;stroke-width:1.0;stroke-dasharray:7.0,7.0;"/><polygon fill="none" points="1018.99,101.33,1040.17,101.63,1023.43,114.61,1018.99,101.33" style="stroke:#A80036;stroke-width:1.0;"/><!--MD5=[307bb6733b33d4ffb44778dabb00bcd8]
reverse link characters.Character to behaviors.weaponBehaviors--><path codeLine="38" d="M672.48,114.14 C691.39,122.39 709.48,132.96 724.5,146.5 C740.28,160.725 750.2175,182.3875 756.24,200.72 C756.2871,200.8632 756.3339,201.0062 756.3804,201.1491 " fill="none" id="characters.Character-backto-behaviors.weaponBehaviors" style="stroke:#A80036;stroke-width:1.0;"/><polygon fill="#A80036" points="660.3,109.17,664.3501,115.1363,671.4152,113.6925,667.3651,107.7262,660.3,109.17" style="stroke:#A80036;stroke-width:1.0;"/><!--MD5=[75d01187f1810d17b0f39d97caf74e92]
@startuml
skinparam ClassAttributeIconSize 0

abstract characters.Character{
    - weapon : WeaponBehavior
    +figt(): void
    +setWeapon(w : WeaponBehavior) : void
} 
class characters.Queen extends characters.Character {
    +fight() : void
}
class characters.Troll extends characters.Character {
    +fight() : void
}
class characters.King extends characters.Character {
    +fight() : void
}
class characters.Knight extends characters.Character {
    +fight() : void
}
interface behaviors.WeaponBehavior {
    +useWeapon() : void
}
class behaviors.weaponBehaviors.AxeBehavior implements behaviors.WeaponBehavior {
    +useWeapon()
}
class behaviors.weaponBehaviors.BowAndArrowBehavior implements behaviors.WeaponBehavior {
    +useWeapon()
}
class behaviors.weaponBehaviors.KnifeBehavior implements behaviors.WeaponBehavior {
    +useWeapon()
}
class behaviors.weaponBehaviors.SwordBehavior implements behaviors.WeaponBehavior {
    +useWeapon()
}
class game {
    +static main(args : String[]) : void
}
characters.Character *- -  behaviors.weaponBehaviors
@enduml

PlantUML version 1.2021.00(Sun Jan 10 02:25:05 PST 2021)
(GPL source distribution)
Java Runtime: Java(TM) SE Runtime Environment
JVM: Java HotSpot(TM) 64-Bit Server VM
Default Encoding: UTF-8
Language: en
Country: CA
--></g></svg>